<svg width="500" height="500" viewBox="0 0 500 500" version="1.1" xmlns="http://www.w3.org/2000/svg" xmlns:xlink="http://www.w3.org/1999/xlink">
<title>chart-arc</title>
<desc>Created using Figma</desc>
<g id="Canvas" transform="translate(-24671 11265)">
<g id="chart-arc">
<g id="Vector">
<use xlink:href="#path0_fill" transform="translate(24671 -11265)" fill="#FF6D00"/>
<use xlink:href="#path0_fill" transform="translate(24671 -11265)" fill="url(#paint1_linear)"/>
</g>
</g>
</g>
<defs>
<linearGradient id="paint1_linear" x1="0" y1="0" x2="1" y2="0" gradientUnits="userSpaceOnUse" gradientTransform="matrix(3.06162e-14 500 -500 3.06162e-14 500 -3.06162e-14)">
<stop offset="0.0607735" stop-color="#F4511E"/>
<stop offset="1" stop-color="#FFFFFF" stop-opacity="0"/>
</linearGradient>
<path id="path0_fill" d="M 366.111 461.111L 310.278 364.444C 337.5 344.444 356.389 313.333 360.278 277.778L 472.222 277.778C 467.5 354.444 426.389 421.111 366.111 461.111ZM 277.778 111.944L 277.778 0C 397.222 7.22222 492.778 102.778 500 222.222L 388.056 222.222C 381.667 164.167 335.833 118.333 277.778 111.944ZM 111.111 263.889C 111.111 281.667 114.722 298.611 121.667 313.889L 25 369.722C 8.88889 337.778 0 301.944 0 263.889C 0 138.056 98.3333 35.2778 222.222 27.7778L 222.222 139.722C 159.722 146.667 111.111 199.444 111.111 263.889ZM 236.111 500C 153.611 500 81.1111 458.333 38.8889 393.889L 135.556 338.056C 158.333 368.889 194.444 388.889 236.111 388.889C 253.889 388.889 270.833 385.278 286.111 378.333L 341.944 475C 310 491.111 274.167 500 236.111 500Z"/>
</defs>
</svg>
