<svg width="637" height="400" viewBox="0 0 637 400" version="1.1" xmlns="http://www.w3.org/2000/svg" xmlns:xlink="http://www.w3.org/1999/xlink">
<title>Vector</title>
<desc>Created using Figma</desc>
<g id="Canvas" transform="translate(-24921 10543)">
<g id="Vector">
<use xlink:href="#path0_fill" transform="translate(24921 -10543)" fill="#FF6D00"/>
<use xlink:href="#path0_fill" transform="translate(24921 -10543)" fill="url(#paint1_linear)"/>
</g>
</g>
<defs>
<linearGradient id="paint1_linear" x1="0" y1="0" x2="1" y2="0" gradientUnits="userSpaceOnUse" gradientTransform="matrix(3.8966e-14 400 -636.364 2.44929e-14 636.364 -2.44929e-14)">
<stop offset="0" stop-color="#F4511E"/>
<stop offset="1" stop-color="#FFFFFF" stop-opacity="0"/>
</linearGradient>
<path id="path0_fill" d="M 72.7273 3.22974e-14C 53.4388 6.45948e-14 34.9403 7.66231 21.3013 21.3013C 7.66231 34.9403 3.22974e-14 53.4388 1.61487e-14 72.7273L 1.61487e-14 290.909C 3.22974e-14 310.198 7.66231 328.696 21.3013 342.335C 34.9403 355.974 53.4388 363.636 72.7273 363.636L 181.818 363.636L 181.818 290.909L 72.7273 290.909L 72.7273 72.7273L 181.818 72.7273L 181.818 3.22974e-14L 72.7273 3.22974e-14ZM 290.909 3.22974e-14C 271.621 6.45948e-14 253.122 7.66231 239.483 21.3013C 225.844 34.9403 218.182 53.4388 218.182 72.7273L 218.182 290.909C 218.182 310.198 225.844 328.696 239.483 342.335C 253.122 355.974 271.621 363.636 290.909 363.636L 363.636 363.636C 382.925 363.636 401.423 355.974 415.062 342.335C 428.701 328.696 436.364 310.198 436.364 290.909L 436.364 72.7273C 436.364 53.4388 428.701 34.9403 415.062 21.3013C 401.423 7.66231 382.925 9.68922e-14 363.636 3.22974e-14L 290.909 3.22974e-14ZM 290.909 72.7273L 363.636 72.7273L 363.636 290.909L 290.909 290.909L 290.909 72.7273ZM 472.727 127.273L 472.727 181.818L 581.818 181.818L 581.818 236.364L 527.273 236.364C 512.806 236.364 498.932 242.11 488.703 252.34C 478.474 262.569 472.727 276.443 472.727 290.909L 472.727 400L 636.364 400L 636.364 345.455L 527.273 345.455L 527.273 290.909L 581.818 290.909C 596.284 290.909 610.158 285.162 620.388 274.933C 630.617 264.704 636.364 250.83 636.364 236.364L 636.364 181.818C 636.364 167.352 630.617 153.478 620.388 143.249C 610.158 133.019 596.284 127.273 581.818 127.273L 472.727 127.273Z"/>
</defs>
</svg>
