<svg width="500" height="500" viewBox="0 0 500 500" version="1.1" xmlns="http://www.w3.org/2000/svg" xmlns:xlink="http://www.w3.org/1999/xlink">
<title>coin</title>
<desc>Created using Figma</desc>
<g id="Canvas" transform="translate(-24277 10674)">
<g id="coin">
<g id="Vector">
<use xlink:href="#path0_fill" transform="translate(24277 -10674)" fill="#FF6D00"/>
<use xlink:href="#path0_fill" transform="translate(24277 -10674)" fill="url(#paint1_linear)"/>
</g>
</g>
</g>
<defs>
<linearGradient id="paint1_linear" x1="0" y1="0" x2="1" y2="0" gradientUnits="userSpaceOnUse" gradientTransform="matrix(3.06162e-14 500 -500 3.06162e-14 500 -3.06162e-14)">
<stop offset="0.0607735" stop-color="#F4511E"/>
<stop offset="1" stop-color="#FFFFFF" stop-opacity="0"/>
</linearGradient>
<path id="path0_fill" d="M 250 0C 282.83 1.11022e-14 315.339 6.46644 345.671 19.0301C 376.002 31.5938 403.562 50.0087 426.777 73.2233C 449.991 96.438 468.406 123.998 480.97 154.329C 493.534 184.661 500 217.17 500 250C 500 316.304 473.661 379.893 426.777 426.777C 379.893 473.661 316.304 500 250 500C 217.17 500 184.661 493.534 154.329 480.97C 123.998 468.406 96.438 449.991 73.2233 426.777C 26.3392 379.893 2.22045e-14 316.304 1.11022e-14 250C 3.33067e-14 183.696 26.3392 120.107 73.2233 73.2233C 120.107 26.3392 183.696 4.44089e-14 250 0L 250 0ZM 250 50C 196.957 50 146.086 71.0714 108.579 108.579C 71.0714 146.086 50 196.957 50 250C 50 303.043 71.0714 353.914 108.579 391.421C 146.086 428.929 196.957 450 250 450C 303.043 450 353.914 428.929 391.421 391.421C 428.929 353.914 450 303.043 450 250C 450 196.957 428.929 146.086 391.421 108.579C 353.914 71.0714 303.043 50 250 50L 250 50ZM 225 375L 225 350L 175 350L 175 300L 275 300L 275 275L 200 275C 193.37 275 187.011 272.366 182.322 267.678C 177.634 262.989 175 256.63 175 250L 175 175C 175 168.37 177.634 162.011 182.322 157.322C 187.011 152.634 193.37 150 200 150L 225 150L 225 125L 275 125L 275 150L 325 150L 325 200L 225 200L 225 225L 300 225C 306.63 225 312.989 227.634 317.678 232.322C 322.366 237.011 325 243.37 325 250L 325 325C 325 331.63 322.366 337.989 317.678 342.678C 312.989 347.366 306.63 350 300 350L 275 350L 275 375L 225 375Z"/>
</defs>
</svg>
