<svg width="528" height="500" viewBox="0 0 528 500" version="1.1" xmlns="http://www.w3.org/2000/svg" xmlns:xlink="http://www.w3.org/1999/xlink">
<title>wallet</title>
<desc>Created using Figma</desc>
<g id="Canvas" transform="translate(-25670 10483)">
<g id="wallet">
<g id="Vector">
<use xlink:href="#path0_fill" transform="translate(25670 -10483)" fill="#FF6D00"/>
<use xlink:href="#path0_fill" transform="translate(25670 -10483)" fill="url(#paint1_linear)"/>
</g>
</g>
</g>
<defs>
<linearGradient id="paint1_linear" x1="0" y1="0" x2="1" y2="0" gradientUnits="userSpaceOnUse" gradientTransform="matrix(3.23171e-14 500 -527.778 3.06162e-14 527.778 -3.06162e-14)">
<stop offset="0.171271" stop-color="#F4511E"/>
<stop offset="1" stop-color="#FFFFFF" stop-opacity="0"/>
</linearGradient>
<path id="path0_fill" d="M 500 416.667L 500 444.444C 500 459.179 494.147 473.309 483.728 483.728C 473.309 494.147 459.179 500 444.444 500L 55.5556 500C 24.7222 500 0 475 0 444.444L 0 55.5556C 0 40.8213 5.85316 26.6905 16.2718 16.2718C 26.6905 5.85316 40.8213 1.23358e-14 55.5556 0L 444.444 0C 459.179 1.23358e-14 473.309 5.85316 483.728 16.2718C 494.147 26.6905 500 40.8213 500 55.5556L 500 83.3333L 250 83.3333C 219.167 83.3333 194.444 108.333 194.444 138.889L 194.444 361.111C 194.444 375.845 200.298 389.976 210.716 400.395C 221.135 410.814 235.266 416.667 250 416.667L 500 416.667ZM 250 361.111L 527.778 361.111L 527.778 138.889L 250 138.889L 250 361.111ZM 361.111 291.667C 350.06 291.667 339.462 287.277 331.648 279.463C 323.834 271.649 319.444 261.051 319.444 250C 319.444 238.949 323.834 228.351 331.648 220.537C 339.462 212.723 350.06 208.333 361.111 208.333C 372.162 208.333 382.76 212.723 390.574 220.537C 398.388 228.351 402.778 238.949 402.778 250C 402.778 261.051 398.388 271.649 390.574 279.463C 382.76 287.277 372.162 291.667 361.111 291.667Z"/>
</defs>
</svg>
