<svg width="433" height="500" viewBox="0 0 433 500" version="1.1" xmlns="http://www.w3.org/2000/svg" xmlns:xlink="http://www.w3.org/1999/xlink">
<title>weather-sunny</title>
<desc>Created using Figma</desc>
<g id="Canvas" transform="translate(-25486 11227)">
<g id="weather-sunny">
<g id="Vector">
<use xlink:href="#path0_fill" transform="translate(25486 -11227)" fill="#FF6D00"/>
<use xlink:href="#path0_fill" transform="translate(25486 -11227)" fill="url(#paint1_linear)"/>
</g>
</g>
</g>
<defs>
<linearGradient id="paint1_linear" x1="0" y1="0" x2="1" y2="0" gradientUnits="userSpaceOnUse" gradientTransform="matrix(2.64983e-14 500 -432.75 3.06162e-14 432.75 -3.06162e-14)">
<stop offset="0.259668" stop-color="#F4511E"/>
<stop offset="1" stop-color="#FFFFFF" stop-opacity="0"/>
</linearGradient>
<path id="path0_fill" d="M 216.5 125C 249.652 125 281.446 138.17 304.888 161.612C 328.33 185.054 341.5 216.848 341.5 250C 341.5 283.152 328.33 314.946 304.888 338.388C 281.446 361.83 249.652 375 216.5 375C 183.348 375 151.554 361.83 128.112 338.388C 104.67 314.946 91.5 283.152 91.5 250C 91.5 216.848 104.67 185.054 128.112 161.612C 151.554 138.17 183.348 125 216.5 125L 216.5 125ZM 216.5 175C 196.609 175 177.532 182.902 163.467 196.967C 149.402 211.032 141.5 230.109 141.5 250C 141.5 269.891 149.402 288.968 163.467 303.033C 177.532 317.098 196.609 325 216.5 325C 236.391 325 255.468 317.098 269.533 303.033C 283.598 288.968 291.5 269.891 291.5 250C 291.5 230.109 283.598 211.032 269.533 196.967C 255.468 182.902 236.391 175 216.5 175ZM 216.5 0L 276.25 85.5C 257.75 78.75 237.5 75 216.5 75C 195.5 75 175.25 78.75 156.75 85.5L 216.5 0ZM -2.14577e-06 125L 104 116.25C 89 129 75.5 144.5 65 162.5C 54 181 47.75 200 44.25 219.75L -2.14577e-06 125ZM 0.499997 375L 44.5 280.75C 48 300 54.75 319.5 65.25 337.5C 75.75 356 89.25 371.5 104 384.25L 0.499997 375ZM 432.75 125L 388.5 219.75C 385 200 378.25 180.75 367.75 162.5C 357.25 144.5 344 128.75 329 116L 432.75 125ZM 432.5 375L 329 384C 343.75 371.25 357 355.5 367.5 337.5C 378 319.25 384.75 300 388.25 280.25L 432.5 375ZM 216.5 500L 156.25 414C 174.75 420.75 195 425 216.5 425C 237 425 257.25 420.75 275.75 414L 216.5 500Z"/>
</defs>
</svg>
